<?xml version="1.0" encoding="UTF-8"?>
<svg id="Layer_1" xmlns="http://www.w3.org/2000/svg" version="1.1" viewBox="0 0 144 285">
  <!-- Generator: Adobe Illustrator 29.8.9, SVG Export Plug-In . SVG Version: 2.1.1 Build 1)  -->
  <defs>
    <style>
      .st0, .st1, .st2 {
        isolation: isolate;
      }

      .st1 {
        font-size: 3.78px;
      }

      .st1, .st2 {
        fill: #333;
        font-family: Helvetica, Helvetica;
      }

      .st3 {
        fill: #efb9c0;
      }

      .st2 {
        font-size: 4.36px;
      }

      .st4 {
        fill: none;
        stroke: #ababab;
        stroke-miterlimit: 3.5;
        stroke-width: 1.31px;
      }
    </style>
  </defs>
  <g class="st0">
    <g class="st0">
      <text class="st2" transform="translate(4.68 6.81)"><tspan x="0" y="0">Main knob — method select</tspan></text>
    </g>
  </g>
  <circle class="st3" cx="7.38" cy="13.33" r="2.03"/>
  <circle class="st4" cx="13.77" cy="13.33" r="2.03"/>
  <circle class="st4" cx="7.38" cy="19.14" r="2.03"/>
  <circle class="st4" cx="13.77" cy="19.14" r="2.03"/>
  <circle class="st4" cx="7.38" cy="24.95" r="2.03"/>
  <circle class="st4" cx="13.77" cy="24.95" r="2.03"/>
  <g class="st0">
    <g class="st0">
      <text class="st1" transform="translate(20.16 20.46)"><tspan x="0" y="0">Plain Hunt Minimus [4]</tspan></text>
    </g>
  </g>
  <circle class="st4" cx="7.38" cy="33.66" r="2.03"/>
  <circle class="st3" cx="13.77" cy="33.66" r="2.03"/>
  <circle class="st4" cx="7.38" cy="39.47" r="2.03"/>
  <circle class="st4" cx="13.77" cy="39.47" r="2.03"/>
  <circle class="st4" cx="7.38" cy="45.28" r="2.03"/>
  <circle class="st4" cx="13.77" cy="45.28" r="2.03"/>
  <g class="st0">
    <g class="st0">
      <text class="st1" transform="translate(20.16 40.8)"><tspan x="0" y="0">Grandsire Doubles [5]</tspan></text>
    </g>
  </g>
  <circle class="st4" cx="7.38" cy="54" r="2.03"/>
  <circle class="st4" cx="13.77" cy="54" r="2.03"/>
  <circle class="st3" cx="7.38" cy="59.8" r="2.03"/>
  <circle class="st4" cx="13.77" cy="59.8" r="2.03"/>
  <circle class="st4" cx="7.38" cy="65.62" r="2.03"/>
  <circle class="st4" cx="13.77" cy="65.62" r="2.03"/>
  <g class="st0">
    <g class="st0">
      <text class="st1" transform="translate(20.16 61.13)"><tspan x="0" y="0">Plain Bob Doubles [5]</tspan></text>
    </g>
  </g>
  <circle class="st4" cx="7.38" cy="74.33" r="2.03"/>
  <circle class="st4" cx="13.77" cy="74.33" r="2.03"/>
  <circle class="st4" cx="7.38" cy="80.14" r="2.03"/>
  <circle class="st3" cx="13.77" cy="80.14" r="2.03"/>
  <circle class="st4" cx="7.38" cy="85.95" r="2.03"/>
  <circle class="st4" cx="13.77" cy="85.95" r="2.03"/>
  <g class="st0">
    <g class="st0">
      <text class="st1" transform="translate(20.16 81.46)"><tspan x="0" y="0">Plain Hunt Doubles [5]</tspan></text>
    </g>
  </g>
  <circle class="st4" cx="7.38" cy="94.66" r="2.03"/>
  <circle class="st4" cx="13.77" cy="94.66" r="2.03"/>
  <circle class="st4" cx="7.38" cy="100.47" r="2.03"/>
  <circle class="st4" cx="13.77" cy="100.47" r="2.03"/>
  <circle class="st3" cx="7.38" cy="106.27" r="2.03"/>
  <circle class="st4" cx="13.77" cy="106.27" r="2.03"/>
  <g class="st0">
    <g class="st0">
      <text class="st1" transform="translate(20.16 101.8)"><tspan x="0" y="0">Reverse Canterbury Doubles [5]</tspan></text>
    </g>
  </g>
  <circle class="st4" cx="7.38" cy="114.99" r="2.03"/>
  <circle class="st4" cx="13.77" cy="114.99" r="2.03"/>
  <circle class="st4" cx="7.38" cy="120.8" r="2.03"/>
  <circle class="st4" cx="13.77" cy="120.8" r="2.03"/>
  <circle class="st4" cx="7.38" cy="126.61" r="2.03"/>
  <circle class="st3" cx="13.77" cy="126.61" r="2.03"/>
  <g class="st0">
    <g class="st0">
      <text class="st1" transform="translate(20.16 122.13)"><tspan x="0" y="0">St Martins Doubles [5]</tspan></text>
    </g>
  </g>
  <circle class="st4" cx="84.96" cy="13.33" r="2.03"/>
  <circle class="st3" cx="91.34" cy="13.33" r="2.03"/>
  <circle class="st3" cx="84.96" cy="19.14" r="2.03"/>
  <circle class="st3" cx="91.34" cy="19.14" r="2.03"/>
  <circle class="st3" cx="84.96" cy="24.95" r="2.03"/>
  <circle class="st3" cx="91.34" cy="24.95" r="2.03"/>
  <g class="st0">
    <g class="st0">
      <text class="st1" transform="translate(97.73 20.46)"><tspan x="0" y="0">St Simons Doubles [5]</tspan></text>
    </g>
  </g>
  <circle class="st3" cx="84.96" cy="33.66" r="2.03"/>
  <circle class="st4" cx="91.34" cy="33.66" r="2.03"/>
  <circle class="st3" cx="84.96" cy="39.47" r="2.03"/>
  <circle class="st3" cx="91.34" cy="39.47" r="2.03"/>
  <circle class="st3" cx="84.96" cy="45.28" r="2.03"/>
  <circle class="st3" cx="91.34" cy="45.28" r="2.03"/>
  <g class="st0">
    <g class="st0">
      <text class="st1" transform="translate(97.73 40.8)"><tspan x="0" y="0">Stedman Doubles [5]</tspan></text>
    </g>
  </g>
  <circle class="st3" cx="84.96" cy="54" r="2.03"/>
  <circle class="st3" cx="91.34" cy="54" r="2.03"/>
  <circle class="st4" cx="84.96" cy="59.8" r="2.03"/>
  <circle class="st3" cx="91.34" cy="59.8" r="2.03"/>
  <circle class="st3" cx="84.96" cy="65.62" r="2.03"/>
  <circle class="st3" cx="91.34" cy="65.62" r="2.03"/>
  <g class="st0">
    <g class="st0">
      <text class="st1" transform="translate(97.73 61.13)"><tspan x="0" y="0">Plain Bob Minor [6]</tspan></text>
    </g>
  </g>
  <circle class="st3" cx="84.96" cy="74.33" r="2.03"/>
  <circle class="st3" cx="91.34" cy="74.33" r="2.03"/>
  <circle class="st3" cx="84.96" cy="80.14" r="2.03"/>
  <circle class="st4" cx="91.34" cy="80.14" r="2.03"/>
  <circle class="st3" cx="84.96" cy="85.95" r="2.03"/>
  <circle class="st3" cx="91.34" cy="85.95" r="2.03"/>
  <g class="st0">
    <g class="st0">
      <text class="st1" transform="translate(97.73 81.46)"><tspan x="0" y="0">St Clements Minor [6]</tspan></text>
    </g>
  </g>
  <circle class="st3" cx="84.96" cy="94.66" r="2.03"/>
  <circle class="st3" cx="91.34" cy="94.66" r="2.03"/>
  <circle class="st3" cx="84.96" cy="100.47" r="2.03"/>
  <circle class="st3" cx="91.34" cy="100.47" r="2.03"/>
  <circle class="st4" cx="84.96" cy="106.27" r="2.03"/>
  <circle class="st3" cx="91.34" cy="106.27" r="2.03"/>
  <g class="st0">
    <g class="st0">
      <text class="st1" transform="translate(97.73 101.8)"><tspan x="0" y="0">Grandsire Triples [7]</tspan></text>
    </g>
  </g>
  <circle class="st3" cx="84.96" cy="114.99" r="2.03"/>
  <circle class="st3" cx="91.34" cy="114.99" r="2.03"/>
  <circle class="st3" cx="84.96" cy="120.8" r="2.03"/>
  <circle class="st3" cx="91.34" cy="120.8" r="2.03"/>
  <circle class="st3" cx="84.96" cy="126.61" r="2.03"/>
  <circle class="st4" cx="91.34" cy="126.61" r="2.03"/>
  <g class="st0">
    <g class="st0">
      <text class="st1" transform="translate(97.73 122.13)"><tspan x="0" y="0">Plain Bob Triples [8]</tspan></text>
    </g>
  </g>
  <g>
    <g class="st0">
      <g class="st0">
        <text class="st2" transform="translate(82.94 146.2)"><tspan x="0" y="0">Y knob — scale</tspan></text>
      </g>
    </g>
    <circle class="st3" cx="84.97" cy="153.17" r="2.03"/>
    <circle class="st4" cx="91.36" cy="153.17" r="2.03"/>
    <circle class="st4" cx="84.97" cy="158.98" r="2.03"/>
    <circle class="st4" cx="91.36" cy="158.98" r="2.03"/>
    <circle class="st4" cx="84.97" cy="164.79" r="2.03"/>
    <circle class="st4" cx="91.36" cy="164.79" r="2.03"/>
    <g class="st0">
      <g class="st0">
        <text class="st1" transform="translate(97.75 160.31)"><tspan x="0" y="0">Major</tspan></text>
      </g>
    </g>
    <circle class="st4" cx="84.97" cy="173.5" r="2.03"/>
    <circle class="st3" cx="91.36" cy="173.5" r="2.03"/>
    <circle class="st4" cx="84.97" cy="179.31" r="2.03"/>
    <circle class="st4" cx="91.36" cy="179.31" r="2.03"/>
    <circle class="st4" cx="84.97" cy="185.12" r="2.03"/>
    <circle class="st4" cx="91.36" cy="185.12" r="2.03"/>
    <g class="st0">
      <g class="st0">
        <text class="st1" transform="translate(97.75 180.64)"><tspan x="0" y="0">Minor</tspan></text>
      </g>
    </g>
    <circle class="st4" cx="84.97" cy="193.83" r="2.03"/>
    <circle class="st4" cx="91.36" cy="193.83" r="2.03"/>
    <circle class="st3" cx="84.97" cy="199.65" r="2.03"/>
    <circle class="st4" cx="91.36" cy="199.65" r="2.03"/>
    <circle class="st4" cx="84.97" cy="205.45" r="2.03"/>
    <circle class="st4" cx="91.36" cy="205.45" r="2.03"/>
    <g class="st0">
      <g class="st0">
        <text class="st1" transform="translate(97.75 200.97)"><tspan x="0" y="0">Pentatonic Major</tspan></text>
      </g>
    </g>
    <circle class="st4" cx="84.97" cy="214.16" r="2.03"/>
    <circle class="st4" cx="91.36" cy="214.16" r="2.03"/>
    <circle class="st4" cx="84.97" cy="219.98" r="2.03"/>
    <circle class="st3" cx="91.36" cy="219.98" r="2.03"/>
    <circle class="st4" cx="84.97" cy="225.78" r="2.03"/>
    <circle class="st4" cx="91.36" cy="225.78" r="2.03"/>
    <g class="st0">
      <g class="st0">
        <text class="st1" transform="translate(97.75 221.3)"><tspan x="0" y="0">Pentatonic Minor</tspan></text>
      </g>
    </g>
    <circle class="st4" cx="84.97" cy="234.5" r="2.03"/>
    <circle class="st4" cx="91.36" cy="234.5" r="2.03"/>
    <circle class="st4" cx="84.97" cy="240.3" r="2.03"/>
    <circle class="st4" cx="91.36" cy="240.3" r="2.03"/>
    <circle class="st3" cx="84.97" cy="246.12" r="2.03"/>
    <circle class="st4" cx="91.36" cy="246.12" r="2.03"/>
    <g class="st0">
      <g class="st0">
        <text class="st1" transform="translate(97.75 241.63)"><tspan x="0" y="0">Blues</tspan></text>
      </g>
    </g>
    <circle class="st4" cx="84.97" cy="254.83" r="2.03"/>
    <circle class="st4" cx="91.36" cy="254.83" r="2.03"/>
    <circle class="st4" cx="84.97" cy="260.64" r="2.03"/>
    <circle class="st4" cx="91.36" cy="260.64" r="2.03"/>
    <circle class="st4" cx="84.97" cy="266.45" r="2.03"/>
    <circle class="st3" cx="91.36" cy="266.45" r="2.03"/>
    <g class="st0">
      <g class="st0">
        <text class="st1" transform="translate(97.75 261.96)"><tspan x="0" y="0">Chromatic</tspan></text>
      </g>
    </g>
  </g>
  <g>
    <g class="st0">
      <g class="st0">
        <text class="st2" transform="translate(5.35 146.29)"><tspan x="0" y="0">X knob — clock divide/multiply</tspan></text>
      </g>
    </g>
    <circle class="st4" cx="7.48" cy="216.97" r="2.03"/>
    <circle class="st4" cx="13.87" cy="216.97" r="2.03"/>
    <circle class="st4" cx="7.48" cy="222.78" r="2.03"/>
    <circle class="st4" cx="13.87" cy="222.78" r="2.03"/>
    <circle class="st3" cx="7.48" cy="228.58" r="2.03"/>
    <circle class="st4" cx="13.87" cy="228.58" r="2.03"/>
    <g class="st0">
      <g class="st0">
        <text class="st1" transform="translate(20.26 224.1)"><tspan x="0" y="0">/8</tspan></text>
      </g>
    </g>
    <circle class="st4" cx="7.48" cy="196.64" r="2.03"/>
    <circle class="st4" cx="13.87" cy="196.64" r="2.03"/>
    <circle class="st3" cx="7.48" cy="202.44" r="2.03"/>
    <circle class="st4" cx="13.87" cy="202.44" r="2.03"/>
    <circle class="st4" cx="7.48" cy="208.26" r="2.03"/>
    <circle class="st4" cx="13.87" cy="208.26" r="2.03"/>
    <g class="st0">
      <g class="st0">
        <text class="st1" transform="translate(20.26 203.77)"><tspan x="0" y="0">/4</tspan></text>
      </g>
    </g>
    <circle class="st3" cx="7.48" cy="176.38" r="2.03"/>
    <circle class="st4" cx="13.87" cy="176.38" r="2.03"/>
    <circle class="st4" cx="7.48" cy="182.18" r="2.03"/>
    <circle class="st4" cx="13.87" cy="182.18" r="2.03"/>
    <circle class="st4" cx="7.48" cy="187.99" r="2.03"/>
    <circle class="st4" cx="13.87" cy="187.99" r="2.03"/>
    <g class="st0">
      <g class="st0">
        <text class="st1" transform="translate(20.26 183.51)"><tspan x="0" y="0">/2</tspan></text>
      </g>
    </g>
    <circle class="st3" cx="25.31" cy="153.26" r="2.03"/>
    <circle class="st3" cx="31.7" cy="153.26" r="2.03"/>
    <circle class="st4" cx="25.31" cy="159.07" r="2.03"/>
    <circle class="st4" cx="31.7" cy="159.07" r="2.03"/>
    <circle class="st4" cx="25.31" cy="164.88" r="2.03"/>
    <circle class="st4" cx="31.7" cy="164.88" r="2.03"/>
    <g class="st0">
      <g class="st0">
        <text class="st1" transform="translate(38.09 160.4)"><tspan x="0" y="0">x1</tspan></text>
      </g>
    </g>
    <circle class="st4" cx="41.05" cy="176.3" r="2.03"/>
    <circle class="st3" cx="47.44" cy="176.3" r="2.03"/>
    <circle class="st4" cx="41.05" cy="182.11" r="2.03"/>
    <circle class="st4" cx="47.44" cy="182.11" r="2.03"/>
    <circle class="st4" cx="41.05" cy="187.92" r="2.03"/>
    <circle class="st4" cx="47.44" cy="187.92" r="2.03"/>
    <g class="st0">
      <g class="st0">
        <text class="st1" transform="translate(53.83 183.44)"><tspan x="0" y="0">x2</tspan></text>
      </g>
    </g>
    <circle class="st4" cx="41.05" cy="196.64" r="2.03"/>
    <circle class="st4" cx="47.44" cy="196.64" r="2.03"/>
    <circle class="st4" cx="41.05" cy="202.44" r="2.03"/>
    <circle class="st3" cx="47.44" cy="202.44" r="2.03"/>
    <circle class="st4" cx="41.05" cy="208.26" r="2.03"/>
    <circle class="st4" cx="47.44" cy="208.26" r="2.03"/>
    <g class="st0">
      <g class="st0">
        <text class="st1" transform="translate(53.83 203.77)"><tspan x="0" y="0">x4</tspan></text>
      </g>
    </g>
    <circle class="st4" cx="41.05" cy="216.97" r="2.03"/>
    <circle class="st4" cx="47.44" cy="216.97" r="2.03"/>
    <circle class="st4" cx="41.05" cy="222.78" r="2.03"/>
    <circle class="st4" cx="47.44" cy="222.78" r="2.03"/>
    <circle class="st4" cx="41.05" cy="228.58" r="2.03"/>
    <circle class="st3" cx="47.44" cy="228.58" r="2.03"/>
    <g class="st0">
      <g class="st0">
        <text class="st1" transform="translate(53.83 224.1)"><tspan x="0" y="0">x8</tspan></text>
      </g>
    </g>
  </g>
</svg>